# xmcd
#
# Track frame offsets:
#	150
#	16274
#	32730
#	49311
#	63315
#	79294
#	97476
#	113272
#	126057
#	142324
#	157838
#	174308
#
# Disc length: 2523 seconds
#
# Revision: 1
# Processed by: cddbd v1.5.2PL0 Copyright (c) Steve Scherf et al.
# Submitted via: audiograbber 1.83.01
#
DISCID=9d09d90c
DTITLE=Jarno Itkonen - Kauas Kanssasi Liitelen
DYEAR=2017
DGENRE=Pop
TTITLE0=Etsit‰‰n S‰pin‰‰
TTITLE1=Toiveiden Tunti
TTITLE2=Kauas Kanssasi Liitelen
TTITLE3=Ei, Et Ole Yksin
TTITLE4=Miehelle Kaunis
TTITLE5=Kuitenkaan Et Palaa Luokseni
TTITLE6=Oon Onnellinen
TTITLE7=Laita Valo Ikkunaas
TTITLE8=Olen Vapaa
TTITLE9=T‰‰ Yˆ
TTITLE10=Pime‰ Rakkaus
TTITLE11=On Syd‰n Jokaisella
EXTD=TR.
EXTT0=
EXTT1=
EXTT2=
EXTT3=
EXTT4=
EXTT5=
EXTT6=
EXTT7=
EXTT8=
EXTT9=
EXTT10=
EXTT11=
PLAYORDER=
